<svg id="2c9670c3-76ea-4791-826f-299cca534805" data-name="Ebene 1" xmlns="http://www.w3.org/2000/svg" viewBox="0 0 981.15 640.31"><defs><style>.\30 9302fc9-26ec-4f45-ae87-9aebe412d055{fill:#f28a1a;opacity:0.3;isolation:isolate;}.cbfd9b84-2fb7-4cac-8877-a6e03b8412df{fill:#be1622;}.c34d921d-6086-4d03-aa3f-aa48b8e4bfec{fill:#fdd21a;}</style></defs><title>ServerlessBC-Logo</title><polygon class="09302fc9-26ec-4f45-ae87-9aebe412d055" points="505.97 215.97 647.05 0 536.36 0 419.15 266.98 558.06 268.06 351.86 640.31 651.4 215.97 505.97 215.97"/><path class="cbfd9b84-2fb7-4cac-8877-a6e03b8412df" d="M337.51,465.44Q408.33,481.9,437,505.3q41.1,33.27,41.11,86.29,0,55.95-44.9,92.5Q378,728.33,272.93,728.33H21.43v-12.7q34.36,0,46.62-6.43t17.18-16.75q4.94-10.3,4.94-50.78v-322q0-40.47-4.94-51T67.86,251.92q-12.43-6.25-46.43-6.26V233H258.81q85.09,0,120.52,15.15t55.87,45.25q20.45,30.12,20.45,64,0,35.78-26.14,63.7T337.51,465.44Zm-133-9.83q52.34,0,77.23-11.69t38.14-32.86q13.27-21.19,13.27-54.05T320,303.16q-13.1-21-37.42-32t-78.14-10.6Zm0,28.39V660.92q0,19.7,9.86,29.73t29.24,10a110.63,110.63,0,0,0,52.92-12.91,87.8,87.8,0,0,0,37.14-37.46q12.92-24.55,12.92-54.74,0-34.55-14.46-62t-42.85-38.69Q260.87,483.65,204.48,484Z" transform="translate(-21.43 -179.96)"/><path class="cbfd9b84-2fb7-4cac-8877-a6e03b8412df" d="M1002.57,221.75V393.6h-14.2q-16-67.65-59.68-103.68t-99-36q-46.23,0-84.79,26.7a155.52,155.52,0,0,0-56.4,69.85Q665.59,405.66,665.6,473.3q0,66.58,16.74,121.24t52.43,82.65q35.67,28,92.47,28,46.6,0,85.37-20.45t81.73-70.5v42.68Q952.82,700.41,907.81,720T802.67,739.53q-79.08,0-140.48-31.77t-94.75-91.28Q534.1,557,534.1,489.77q0-70.83,37-134.37t99.82-98.59q62.83-35.06,133.52-35.06,52.08,0,110,22.7,33.52,13.17,42.62,13.17A27.58,27.58,0,0,0,977.26,249q8.56-8.6,11.11-27.27Z" transform="translate(-21.43 -179.96)"/><polygon class="c34d921d-6086-4d03-aa3f-aa48b8e4bfec" points="647.05 0 435.43 0 321.48 321.24 460.39 322.32 351.86 640.31 651.4 215.97 505.97 215.97 647.05 0"/></svg>